<svg xmlns="http://www.w3.org/2000/svg" viewBox="0 0 64 64" role="img" aria-label="LabFlow">
  <defs><linearGradient id="flow" x1="0" y1="0" x2="1" y2="1"><stop offset="0" stop-color="#127A8B"/><stop offset="1" stop-color="#22B573"/></linearGradient></defs>
  <path d="M22 7h20M25 7v15L11.5 46.5A7.5 7.5 0 0 0 18 58h28a7.5 7.5 0 0 0 6.5-11.5L39 22V7" fill="none" stroke="#0D1F3D" stroke-width="4" stroke-linecap="round" stroke-linejoin="round"/>
  <path d="M17 48c7-8 18-5 25-11 4-3 2-8-3-10 8 1 13 7 11 13-3 8-15 10-23 11-5 1-8 3-9 5" fill="none" stroke="url(#flow)" stroke-width="5" stroke-linecap="round"/>
  <path d="M32 14v32" fill="none" stroke="#0D1F3D" stroke-width="1.7" opacity=".7"/>
  <circle cx="32" cy="18" r="3.8" fill="#0D1F3D"/><circle cx="32" cy="31" r="3.8" fill="#127A8B"/><circle cx="32" cy="48" r="3.8" fill="#22B573"/>
</svg>
